# xmcd CD database file
#
# Track frame offsets:
#	183
#	29948
#	49305
#	88368
#	114428
#	141418
#	182083
#
# Disc length: 2888 seconds
#
# Revision: 0
# Processed by: cddbd v1.5PL3 Copyright (c) Steve Scherf et al.
# Submitted via: CDex 1.51
#
DISCID=6c0b4607
DTITLE=Claude Bolling - Picnic Suite
DYEAR=1992
DGENRE=Jazz
TTITLE0=Rococo
TTITLE1=Madrigal
TTITLE2=Gaylancholic
TTITLE3=Fantasque
TTITLE4=Canon
TTITLE5=Tendre
TTITLE6=Badine
EXTD=YEAR: 1992
EXTT0=
EXTT1=
EXTT2=
EXTT3=
EXTT4=
EXTT5=
EXTT6=
PLAYORDER=
